<svg width="150" height="71" viewBox="0 0 150 71" fill="none" xmlns="http://www.w3.org/2000/svg">
<path d="M66.984 40.968L69.288 58.44C68.008 60.552 66.216 62.504 63.912 64.296C61.672 66.088 58.76 67.56 55.176 68.712C51.656 69.8 47.368 70.344 42.312 70.344C33.736 70.28 26.28 68.904 19.944 66.216C13.672 63.464 8.84 59.496 5.448 54.312C2.056 49.128 0.36 42.792 0.36 35.304C0.36 28.008 2.024 21.768 5.352 16.584C8.68 11.336 13.48 7.336 19.752 4.584C26.024 1.832 33.576 0.455996 42.408 0.455996C47.784 0.455996 52.552 0.903996 56.712 1.8C60.936 2.696 64.392 3.72 67.08 4.872L66.12 23.208H65.256C63.336 16.424 60.552 11.752 56.904 9.192C53.256 6.568 48.968 5.256 44.04 5.256C39.304 5.256 35.24 6.44 31.848 8.808C28.52 11.176 25.96 14.568 24.168 18.984C22.376 23.4 21.48 28.744 21.48 35.016C21.48 41.288 22.312 46.696 23.976 51.24C25.64 55.72 28.008 59.208 31.08 61.704C34.216 64.136 37.96 65.416 42.312 65.544C47.496 65.544 51.624 64.776 54.696 63.24C57.768 61.704 60.168 59.144 61.896 55.56C63.624 51.912 65.064 47.048 66.216 40.968H66.984ZM94.629 0.455996C96.037 0.455996 97.925 0.519997 100.293 0.647999C102.661 0.775997 105.125 0.967997 107.685 1.224C110.245 1.416 112.485 1.64 114.405 1.89599C116.325 2.088 117.573 2.312 118.149 2.568L116.229 17.064H115.269C115.269 13.544 113.893 10.696 111.141 8.51999C108.453 6.344 104.741 5.256 100.005 5.256C96.101 5.256 92.997 6.024 90.693 7.56C88.389 9.032 87.141 10.952 86.949 13.32C86.757 15.624 87.525 17.416 89.253 18.696C91.045 19.976 93.125 21.16 95.493 22.248L113.445 30.6C117.029 32.2 119.845 34.536 121.893 37.608C123.941 40.68 124.805 44.552 124.485 49.224C124.037 56.072 121.157 61.32 115.845 64.968C110.597 68.552 103.429 70.344 94.341 70.344C90.629 70.344 87.269 70.056 84.261 69.48C81.253 68.904 78.661 68.168 76.485 67.272C74.373 66.312 72.741 65.256 71.589 64.104C70.885 62.504 70.597 60.552 70.725 58.248C70.853 55.944 71.269 53.672 71.973 51.432C72.741 49.128 73.637 47.304 74.661 45.96H75.525C75.333 49.288 76.037 52.456 77.637 55.464C79.237 58.472 81.637 60.904 84.837 62.76C88.037 64.616 91.877 65.544 96.357 65.544C100.965 65.544 104.357 64.584 106.533 62.664C108.773 60.744 109.893 58.568 109.893 56.136C109.893 54.088 109.093 52.232 107.493 50.568C105.957 48.904 103.365 47.24 99.717 45.576L84.069 38.28C79.653 36.232 76.421 33.416 74.373 29.832C72.389 26.248 71.685 22.184 72.261 17.64C72.709 13.928 73.893 10.792 75.813 8.232C77.733 5.672 80.261 3.752 83.397 2.472C86.597 1.128 90.341 0.455996 94.629 0.455996ZM118.341 1.41599L118.053 3.432H104.133V1.41599H118.341ZM137.56 70.792C134.403 70.792 131.672 69.6827 129.368 67.464C127.149 65.16 126.04 62.4293 126.04 59.272C126.04 56.0293 127.149 53.2987 129.368 51.08C131.672 48.8613 134.403 47.752 137.56 47.752C140.803 47.752 143.533 48.8613 145.752 51.08C147.971 53.2987 149.08 56.0293 149.08 59.272C149.08 62.4293 147.971 65.16 145.752 67.464C143.533 69.6827 140.803 70.792 137.56 70.792Z" fill="black"/>
</svg>
