<svg width="39" height="39" viewBox="0 0 39 39" fill="none" xmlns="http://www.w3.org/2000/svg">
<rect width="39" height="39" rx="10" fill="#FBFBFB"/>
<path d="M19.3858 18.5739V22.3342L18.9888 22.6643V19.5362H18.2414L19.3858 18.5739ZM33.1556 18C33.4881 18 33.7968 18.0518 34.0818 18.1553C34.3559 18.253 34.5923 18.3629 34.7912 18.485L34.8258 18.5066L34.4142 19.3156C34.3767 19.2839 34.3236 19.2476 34.2551 19.2067L34.2162 19.184L34.1743 19.1604L34.1292 19.1358C34.0026 19.065 33.8522 19.0051 33.678 18.956C33.5039 18.9016 33.3245 18.8743 33.1398 18.8743C32.6437 18.8743 32.3957 19.0187 32.3957 19.3074C32.3957 19.4763 32.4854 19.5961 32.6648 19.667L32.7057 19.6823L32.7491 19.6978L32.7952 19.7136L32.8438 19.7297L32.895 19.746L32.9488 19.7625C32.958 19.7653 32.9673 19.7681 32.9767 19.7709L33.0343 19.7878L33.0946 19.805L33.1574 19.8224L33.2229 19.8401L33.2909 19.858L33.3977 19.8854L33.4722 19.9039C33.7836 19.9856 34.0527 20.0782 34.2796 20.1817C34.5022 20.2809 34.6738 20.4126 34.7946 20.5769L34.81 20.5985C34.9367 20.7674 35 20.9907 35 21.2685C35 21.6063 34.9156 21.8787 34.7467 22.0857C34.5831 22.2872 34.3667 22.4343 34.0976 22.5269C33.8284 22.6141 33.5382 22.6576 33.2268 22.6576C32.868 22.6576 32.5118 22.6059 32.1582 22.5024C31.8214 22.4038 31.5206 22.2707 31.2557 22.1029L31.2162 22.0775L31.6436 21.2195C31.7122 21.2903 31.8257 21.3693 31.984 21.4565C32.1476 21.5436 32.3376 21.6172 32.554 21.6771C32.7703 21.737 32.9999 21.767 33.2427 21.767C33.7282 21.767 33.9709 21.6335 33.9709 21.3666C33.9709 21.1868 33.8575 21.0588 33.6305 20.9825L33.576 20.9628L33.5187 20.9427L33.4586 20.9223L33.3959 20.9016L33.3304 20.8806L33.2621 20.8592C33.2505 20.8556 33.2388 20.852 33.227 20.8484L33.1546 20.8266L33.0796 20.8045L33.0017 20.7821L32.9212 20.7593L32.7952 20.7246L32.7519 20.7129C32.298 20.593 31.9603 20.4405 31.7386 20.2553C31.5223 20.0646 31.4141 19.7922 31.4141 19.4381C31.4141 19.1222 31.4906 18.858 31.6436 18.6455C31.802 18.4331 32.0131 18.2724 32.2769 18.1634C32.5461 18.0545 32.8389 18 33.1556 18ZM25.8145 18.0082C26.1494 18.0082 26.4552 18.0711 26.7316 18.197L26.7646 18.2125C27.0496 18.3432 27.2923 18.5202 27.4929 18.7436C27.6987 18.9615 27.8568 19.2094 27.9677 19.4872C28.0785 19.765 28.1341 20.0483 28.1341 20.337C28.1341 20.6366 28.076 20.9253 27.9599 21.2032C27.8438 21.4755 27.6801 21.7207 27.469 21.9386C27.2632 22.151 27.0179 22.3199 26.7329 22.4452C26.448 22.5705 26.1366 22.6331 25.7989 22.6331C25.4506 22.6331 25.1339 22.5705 24.849 22.4452C24.564 22.3145 24.3184 22.1401 24.1126 21.9222C23.9068 21.6989 23.7485 21.4483 23.6376 21.1705C23.527 20.8926 23.4714 20.6067 23.4714 20.3125C23.4714 20.0129 23.5295 19.7242 23.6456 19.4463C23.7564 19.1811 23.9106 18.9457 24.108 18.7401L24.1365 18.7109C24.3476 18.493 24.5955 18.3214 24.8805 18.1961C25.1654 18.0708 25.4768 18.0082 25.8145 18.0082ZM6.71517 18.0327L8.63874 22.6004H7.6255L7.18221 21.53H5.46445L5.02116 22.6004H4L5.93149 18.0327H6.71517ZM12.3812 18.0327L13.6002 19.6506L14.8193 18.0327H15.8563L14.1069 20.3452L15.8009 22.6004H14.7639L13.6002 21.0479L12.4445 22.6004H11.3917L13.0936 20.3452L11.3363 18.0327H12.3812ZM20.1118 18.0118V21.0683H20.8801L19.7156 22.0548V18.2965L20.1118 18.0118ZM25.7989 18.8907C25.5086 18.8907 25.2604 18.9615 25.0546 19.1031C24.8541 19.2448 24.701 19.4245 24.5955 19.6424C24.4899 19.8603 24.4372 20.0864 24.4372 20.3207C24.4372 20.5658 24.4927 20.8 24.6036 21.0234C24.7142 21.2413 24.8699 21.4183 25.0704 21.5545C25.2762 21.6907 25.5216 21.7588 25.8066 21.7588C26.0969 21.7588 26.3423 21.688 26.5428 21.5464C26.7435 21.3993 26.8964 21.2168 27.0019 20.9989C27.1075 20.7755 27.1604 20.5467 27.1604 20.3125C27.1604 20.0673 27.105 19.8358 26.9942 19.6179C26.8834 19.4 26.725 19.2257 26.5191 19.095C26.3185 18.9588 26.0786 18.8907 25.7989 18.8907ZM6.32729 19.2339L5.67818 20.672H6.95265L6.32729 19.2339Z" fill="#5A29E4"/>
</svg>
