<svg width="39" height="39" viewBox="0 0 39 39" fill="none" xmlns="http://www.w3.org/2000/svg">
<rect width="39" height="39" rx="10" fill="#FBFBFB"/>
<path fill-rule="evenodd" clip-rule="evenodd" d="M11.0545 28.8007L9.28906 9H28.6883L26.921 28.7975L18.977 31L11.0545 28.8007Z" fill="#0071BC"/>
<path fill-rule="evenodd" clip-rule="evenodd" d="M19.0049 29.3154L25.4161 27.5516L26.9182 10.6489H19.0049V29.3154Z" fill="#29ABE2"/>
<path fill-rule="evenodd" clip-rule="evenodd" d="M13.3301 17.9237L13.5427 20.3486L19.005 17.9237V15.4949L13.3301 17.9237Z" fill="#B3B3B3"/>
<path fill-rule="evenodd" clip-rule="evenodd" d="M25.0545 12.9022L19.0049 15.4949V17.9237L24.8459 15.3271L25.0545 12.9022Z" fill="#E6E6E6"/>
<path fill-rule="evenodd" clip-rule="evenodd" d="M19.0052 24.2684L18.9864 24.2712L16.2775 23.5437L16.1006 21.6095H13.6626L14.0028 25.42L18.9859 26.7997L19.0052 26.7952V24.2684Z" fill="#E6E6E6"/>
<path fill-rule="evenodd" clip-rule="evenodd" d="M19.0049 17.9237V20.3486H21.9706L21.7011 23.519L19.0049 24.2705V26.7971L23.9714 25.4174L24.6254 17.9237H19.0049Z" fill="white"/>
<path fill-rule="evenodd" clip-rule="evenodd" d="M19.005 17.9237H13.3301L13.5427 20.3486H19.005V17.9237Z" fill="#E6E6E6"/>
<path fill-rule="evenodd" clip-rule="evenodd" d="M19.0049 15.3271V12.9022H18.9803H12.8989L13.1141 15.3271H19.0049Z" fill="#E6E6E6"/>
<path fill-rule="evenodd" clip-rule="evenodd" d="M19.0049 12.9022V15.2967V15.3271H24.8459L25.0545 12.9022H19.0049Z" fill="white"/>
</svg>
