<svg width="39" height="39" viewBox="0 0 39 39" fill="none" xmlns="http://www.w3.org/2000/svg">
<rect y="-0.000976562" width="39" height="39" rx="10" fill="#FBFBFB"/>
<path fill-rule="evenodd" clip-rule="evenodd" d="M10.7654 28.8008L9 9H28.3985L26.6312 28.7977L18.6874 31L10.7654 28.8008Z" fill="#E44D26"/>
<path fill-rule="evenodd" clip-rule="evenodd" d="M18.6992 29.3167L25.1182 27.5371L26.6285 10.619H18.6992V29.3167Z" fill="#F16529"/>
<path d="M15.4858 17.9628H18.6994V20.3913H13.2649L12.6099 13.0475H18.6994V15.476H15.2639L15.4858 17.9628Z" fill="#EBEBEB"/>
<path d="M18.6887 24.2727L18.6994 24.2698V26.7965L18.6882 26.7996L13.7136 25.4186L13.3734 21.6055H15.8112L15.9841 23.5424L18.6887 24.2727Z" fill="#EBEBEB"/>
<path d="M18.6909 13.0475H24.7743L24.5569 15.476H18.6909V13.0475Z" fill="white"/>
<path d="M18.6909 20.3913V17.9628H24.3359L24.2766 18.6149L23.6694 25.4186L18.6909 26.7984V24.2719L21.3994 23.5408L21.6813 20.3913H18.6909Z" fill="white"/>
</svg>
