<svg width="39" height="39" viewBox="0 0 39 39" fill="none" xmlns="http://www.w3.org/2000/svg">
<rect width="39" height="39" rx="10" fill="#FBFBFB"/>
<g clip-path="url(#clip0_111_863)">
<path fill-rule="evenodd" clip-rule="evenodd" d="M8.25781 9.25781H29.7422V30.7422H8.25781V9.25781V9.25781Z" fill="#F7DF1E"/>
<path fill-rule="evenodd" clip-rule="evenodd" d="M13.9068 27.2117L15.5509 26.2167C15.8681 26.7791 16.1566 27.2549 16.8487 27.2549C17.5122 27.2549 17.9304 26.9954 17.9304 25.986V19.1212H19.9494V26.0145C19.9494 28.1057 18.7236 29.0575 16.9353 29.0575C15.3202 29.0575 14.3826 28.221 13.9067 27.2115" fill="black"/>
<path fill-rule="evenodd" clip-rule="evenodd" d="M21.0461 26.9953L22.6901 26.0435C23.1228 26.7502 23.6853 27.2694 24.6803 27.2694C25.5169 27.2694 26.0503 26.8511 26.0503 26.2742C26.0503 25.582 25.5023 25.3368 24.5793 24.9331L24.0747 24.7167C22.618 24.0966 21.6518 23.3179 21.6518 21.6738C21.6518 20.1595 22.8055 19.0057 24.6083 19.0057C25.8918 19.0057 26.8148 19.4529 27.4781 20.621L25.9061 21.6305C25.56 21.0104 25.1851 20.7653 24.6083 20.7653C24.017 20.7653 23.642 21.1402 23.642 21.6305C23.642 22.2362 24.017 22.4814 24.8822 22.8564L25.3869 23.0727C27.1031 23.8083 28.0694 24.5581 28.0694 26.2454C28.0694 28.0626 26.6417 29.0576 24.7236 29.0576C22.8488 29.0576 21.6374 28.1635 21.0462 26.9953" fill="black"/>
</g>
<defs>
<clipPath id="clip0_111_863">
<rect width="22" height="22" fill="white" transform="translate(8 9)"/>
</clipPath>
</defs>
</svg>
