<svg width="39" height="39" viewBox="0 0 39 39" fill="none" xmlns="http://www.w3.org/2000/svg">
<rect width="39" height="39" rx="10" fill="#FBFBFB"/>
<path d="M23.2437 22.9678C24.0555 22.8874 24.6714 22.2172 24.6434 21.4128C24.6155 20.6086 23.9155 19.9651 23.0757 19.9651L23.0197 19.9651C22.1518 19.992 21.4799 20.689 21.5079 21.5201C21.5359 21.9222 21.7038 22.2707 21.9558 22.512C21.004 24.3083 19.5482 25.622 17.3645 26.7211C15.8807 27.4718 14.341 27.7399 12.8012 27.5523C11.5414 27.3914 10.5615 26.8553 9.94554 25.9705C9.04972 24.6568 8.96576 23.2359 9.72167 21.815C10.2536 20.7962 11.0934 20.0455 11.6254 19.6702C11.5134 19.3217 11.3454 18.7319 11.2614 18.303C7.20198 21.118 7.62196 24.9249 8.85379 26.7211C9.77761 28.0617 11.6534 28.8928 13.7251 28.8928C14.2849 28.8928 14.8448 28.8391 15.4048 28.7051C18.9883 28.0349 21.7039 25.9973 23.2437 22.9678V22.9678ZM28.171 19.6435C26.0433 17.2574 22.9077 15.9437 19.3242 15.9437L18.8763 15.9437C18.6244 15.4612 18.0924 15.1394 17.5045 15.1394L17.4485 15.1394C16.5807 15.1662 15.9088 15.8632 15.9368 16.6944C15.9648 17.4986 16.6646 18.1421 17.5045 18.1421L17.5605 18.1421C18.1764 18.1153 18.7083 17.7399 18.9323 17.2305L19.4362 17.2305C21.5639 17.2305 23.5796 17.8203 25.3994 18.9732C26.7992 19.8579 27.807 21.0107 28.3669 22.4048C28.8428 23.5308 28.8148 24.63 28.3109 25.5684C27.5271 26.9893 26.2113 27.7668 24.4755 27.7668C23.3557 27.7668 22.2918 27.445 21.7319 27.2037C21.4239 27.4718 20.864 27.9007 20.472 28.1689C21.6759 28.7051 22.9077 29 24.0835 29C26.7712 29 28.7589 27.579 29.5148 26.1582C30.3266 24.6032 30.2706 21.9222 28.171 19.6435V19.6435ZM13.949 23.4235C13.977 24.2278 14.6769 24.8712 15.5168 24.8712L15.5728 24.8712C16.4407 24.8444 17.1126 24.1473 17.0845 23.3163C17.0566 22.5119 16.3566 21.8686 15.5168 21.8686L15.4608 21.8686C15.4048 21.8686 15.3208 21.8686 15.2649 21.8953C14.117 20.0723 13.6411 18.0884 13.8091 15.9436C13.921 14.3351 14.481 12.9409 15.4608 11.7881C16.2727 10.7961 17.8404 10.3136 18.9044 10.2868C21.8719 10.2332 23.1316 13.772 23.2157 15.193C23.5796 15.2734 24.1955 15.4611 24.6155 15.5951C24.2795 11.252 21.4799 9 18.7924 9C16.2727 9 13.949 10.7426 13.0251 13.3164C11.7373 16.748 12.5772 20.0455 14.145 22.6461C14.0051 22.8337 13.921 23.1286 13.949 23.4236L13.949 23.4235Z" fill="#764ABC"/>
</svg>
