<svg width="22" height="31" viewBox="0 0 22 31" fill="none" xmlns="http://www.w3.org/2000/svg">
<path d="M9.20039 0.700195C8.723 0.700195 8.26516 0.895105 7.9276 1.24205C7.59003 1.58899 7.40039 2.05954 7.40039 2.5502C7.40039 3.04085 7.59003 3.5114 7.9276 3.85834C8.26516 4.20529 8.723 4.4002 9.20039 4.4002H12.8004C13.2778 4.4002 13.7356 4.20529 14.0732 3.85834C14.4107 3.5114 14.6004 3.04085 14.6004 2.5502C14.6004 2.05954 14.4107 1.58899 14.0732 1.24205C13.7356 0.895105 13.2778 0.700195 12.8004 0.700195H9.20039Z" fill="white"/>
<path fill-rule="evenodd" clip-rule="evenodd" d="M0.200195 6.2498C0.200195 5.2685 0.57948 4.32739 1.25461 3.63351C1.92974 2.93962 2.84542 2.5498 3.8002 2.5498C3.8002 4.02176 4.36912 5.43342 5.38182 6.47425C6.39452 7.51507 7.76803 8.0998 9.2002 8.0998H12.8002C14.2324 8.0998 15.6059 7.51507 16.6186 6.47425C17.6313 5.43342 18.2002 4.02176 18.2002 2.5498C19.155 2.5498 20.0706 2.93962 20.7458 3.63351C21.4209 4.32739 21.8002 5.2685 21.8002 6.2498V26.5998C21.8002 27.5811 21.4209 28.5222 20.7458 29.2161C20.0706 29.91 19.155 30.2998 18.2002 30.2998H3.8002C2.84542 30.2998 1.92974 29.91 1.25461 29.2161C0.57948 28.5222 0.200195 27.5811 0.200195 26.5998V6.2498ZM5.6002 13.6498C5.12281 13.6498 4.66497 13.8447 4.3274 14.1917C3.98984 14.5386 3.8002 15.0092 3.8002 15.4998C3.8002 15.9905 3.98984 16.461 4.3274 16.808C4.66497 17.1549 5.12281 17.3498 5.6002 17.3498H5.6182C6.09559 17.3498 6.55342 17.1549 6.89099 16.808C7.22855 16.461 7.4182 15.9905 7.4182 15.4998C7.4182 15.0092 7.22855 14.5386 6.89099 14.1917C6.55342 13.8447 6.09559 13.6498 5.6182 13.6498H5.6002ZM11.0002 13.6498C10.5228 13.6498 10.065 13.8447 9.7274 14.1917C9.38984 14.5386 9.2002 15.0092 9.2002 15.4998C9.2002 15.9905 9.38984 16.461 9.7274 16.808C10.065 17.1549 10.5228 17.3498 11.0002 17.3498H16.4002C16.8776 17.3498 17.3354 17.1549 17.673 16.808C18.0106 16.461 18.2002 15.9905 18.2002 15.4998C18.2002 15.0092 18.0106 14.5386 17.673 14.1917C17.3354 13.8447 16.8776 13.6498 16.4002 13.6498H11.0002ZM5.6002 21.0498C5.12281 21.0498 4.66497 21.2447 4.3274 21.5917C3.98984 21.9386 3.8002 22.4092 3.8002 22.8998C3.8002 23.3905 3.98984 23.861 4.3274 24.208C4.66497 24.5549 5.12281 24.7498 5.6002 24.7498H5.6182C6.09559 24.7498 6.55342 24.5549 6.89099 24.208C7.22855 23.861 7.4182 23.3905 7.4182 22.8998C7.4182 22.4092 7.22855 21.9386 6.89099 21.5917C6.55342 21.2447 6.09559 21.0498 5.6182 21.0498H5.6002ZM11.0002 21.0498C10.5228 21.0498 10.065 21.2447 9.7274 21.5917C9.38984 21.9386 9.2002 22.4092 9.2002 22.8998C9.2002 23.3905 9.38984 23.861 9.7274 24.208C10.065 24.5549 10.5228 24.7498 11.0002 24.7498H16.4002C16.8776 24.7498 17.3354 24.5549 17.673 24.208C18.0106 23.861 18.2002 23.3905 18.2002 22.8998C18.2002 22.4092 18.0106 21.9386 17.673 21.5917C17.3354 21.2447 16.8776 21.0498 16.4002 21.0498H11.0002Z" fill="white"/>
</svg>
