<svg width="39" height="39" viewBox="0 0 39 39" fill="none" xmlns="http://www.w3.org/2000/svg">
<rect width="39" height="39" rx="10" fill="#FBFBFB"/>
<path fill-rule="evenodd" clip-rule="evenodd" d="M14.7607 22.4621C14.361 22.6808 13.759 23.035 13.2932 23.4203C12.5285 24.0522 12.3685 24.9287 12.7719 25.1334C13.145 25.3227 14.0162 25.0975 14.6397 24.5025C15.294 23.8778 15.5638 23.0858 15.2851 22.1868C15.2524 22.2038 15.2202 22.221 15.1887 22.2369L15.1894 22.2381L15.1471 22.2591C14.9844 22.3441 14.8515 22.4141 14.7607 22.4621V22.4621V22.4621ZM25.9902 22.1785C25.7638 22.609 25.7525 22.7475 25.8212 22.7905C26.1497 22.6873 26.6931 22.4385 26.6974 21.7717C26.6981 21.6719 26.6729 21.5647 26.6325 21.4527C26.2813 21.7248 26.079 22.0096 25.9902 22.1785V22.1785V22.1785ZM29.5145 20.8771C28.6371 20.7876 27.9525 20.8953 27.4211 21.089C27.5195 21.3131 27.5951 21.5465 27.6058 21.7816C27.6304 22.2977 27.2245 22.6796 26.8014 22.9522C26.5543 23.1112 26.2915 23.2172 26.0708 23.2812C25.8943 23.3463 25.6598 23.4136 25.4934 23.3839C25.1264 23.3186 24.9311 23.0334 25.1807 22.4042C25.3155 22.0637 25.7045 21.5454 26.3324 21.099C26.1893 20.8412 26.0298 20.5786 25.9485 20.3373C25.7883 19.8616 25.7399 19.574 25.7399 19.574C25.7399 19.574 25.2224 20.5128 24.5547 21.3666C24.5162 21.4162 24.4778 21.4649 24.4393 21.5134C24.5705 21.78 24.6738 22.062 24.6878 22.3463C24.7124 22.8623 24.457 23.2525 24.0334 23.5246C23.804 23.6725 23.5593 23.7747 23.3494 23.8398C23.2151 23.8911 22.9421 23.9754 22.5539 23.9981C22.3415 24.0108 22.1372 23.9993 22.0232 23.9237C21.8662 23.8199 21.8473 23.6919 21.9286 23.5169C21.9973 23.3684 22.5117 22.8546 22.9429 22.4048C23.062 22.2806 23.1754 22.1537 23.2769 22.0361L23.2744 22.0311C23.2744 22.0312 23.3526 21.9429 23.4793 21.7889C23.3217 21.492 23.1219 21.1828 23.028 20.9025C22.8678 20.4268 22.8193 20.1392 22.8193 20.1392C22.8193 20.1392 22.2948 21.3159 21.7483 22.2553C21.3254 22.9828 21.0429 23.4236 20.9156 23.6168L20.9143 23.6246C20.9143 23.6246 20.8954 23.6528 20.8626 23.6969L20.8381 23.7327L20.8374 23.7294C20.6955 23.9127 20.3772 24.2719 20.0608 24.2719C19.1922 24.2719 19.5111 22.7282 19.5111 22.7282C19.5111 22.7282 19.2571 23.3 18.9709 23.7907C18.7377 24.1908 18.5253 24.5298 18.0607 24.5298C17.9271 24.5298 17.7152 24.5264 17.5393 24.3801C17.1403 24.0484 16.8352 23.2061 16.895 22.5538C16.9461 21.9991 17.0438 21.615 17.1774 21.2944C16.9391 21.408 16.6637 21.5428 16.3832 21.6869L15.952 21.9092L15.9659 21.9313C16.3226 22.5351 16.4178 23.8581 15.6399 24.8736C14.8621 25.8896 13.4141 26.5078 12.0034 26.1645C11.5482 26.0535 10.8605 25.2295 11.4537 24.081C11.9768 23.0682 14.0678 22.1107 14.6188 21.8717L14.7701 21.7988C13.6714 20.9577 10.928 19.823 10.5435 18.08C10.435 17.5894 10.6979 16.416 12.3444 15.0672C13.7293 13.933 15.6557 13.0643 17.4353 12.5107C20.4251 11.5807 23.584 12.1293 24.07 13.7972C24.5478 15.4375 22.9215 17.3996 20.8387 18.1049C18.9791 18.7346 17.4416 18.6348 16.81 18.4532C16.092 18.2468 15.6709 17.8323 15.5682 17.5983C15.5278 17.5067 15.4583 17.3527 15.5682 17.2997C15.6355 17.2672 15.6626 17.2749 15.8429 17.4493C16.0144 17.6149 16.704 18.0592 18.014 17.9305C21.4515 17.5934 23.5221 15.2549 22.8678 13.9965C22.4096 13.1156 19.7601 12.7182 16.45 14.1626C12.4093 15.9254 12.19 17.3786 12.1553 17.9305C12.0607 19.4488 14.2954 20.2475 15.5045 21.3766L15.5511 21.4213C15.7773 21.3121 16.0163 21.1967 16.2508 21.0842C16.8604 20.7911 17.4353 20.5161 17.7032 20.3881C18.1288 19.8468 18.9923 19.2495 19.6157 19.2495C20.6124 19.2495 20.2701 20.503 20.2701 20.503C20.2701 20.503 20.2903 20.4456 20.3173 20.4451C20.3457 20.4444 20.4554 20.28 20.7631 20.3782C21.0795 20.4797 21.0076 20.6741 21.0096 20.6939C21.0133 20.7325 20.6357 21.8468 20.4788 22.5615C20.4037 22.9026 20.4472 23.1511 20.4694 23.1511C20.5002 23.1511 20.5633 23.0644 20.6219 22.9711L20.6206 22.9683C20.6206 22.9683 20.6647 22.8977 20.7385 22.7708L20.753 22.7443L20.7536 22.7455C20.8407 22.5964 20.9629 22.3773 21.1041 22.1058C21.3808 21.5721 22.4366 19.5118 22.5262 19.2838C22.6156 19.0559 22.6623 18.8203 22.7065 18.7192C22.75 18.6182 23.1232 18.542 23.5593 18.5448C23.9955 18.5476 24.0398 18.7104 24.0428 18.7441C24.046 18.7777 23.8354 19.2298 23.7869 19.5493C23.739 19.8689 23.7851 20.0283 23.8248 20.2966C23.8507 20.472 23.976 20.6945 24.1243 20.9467C24.5756 20.3009 25.3698 19.0658 25.4461 18.7197C25.4983 18.483 25.5822 18.2561 25.6264 18.1551C25.6705 18.0541 26.0431 17.978 26.4792 17.9807C26.9154 17.9835 26.9595 18.1463 26.9627 18.18C26.9659 18.2137 26.7547 18.6657 26.7068 18.9852C26.6588 19.3042 26.705 19.4643 26.7446 19.7325C26.7787 19.9621 26.9816 20.2706 27.1828 20.6216C27.7318 20.3848 28.3779 20.2259 29.1344 20.2226C29.4477 20.221 29.8115 20.2485 29.9993 20.2998V15.0197C29.9993 14.6471 29.7811 14.3039 29.4124 14.1179L19.5686 9.13953C19.2005 8.95349 18.7498 8.95349 18.3816 9.13953L8.56487 14.1155C8.19671 14.3015 8 14.6454 8 15.0173V24.9784C8 25.3503 8.19791 25.6942 8.56547 25.8801L18.398 30.86C18.7661 31.0467 19.2124 31.0467 19.5805 30.86L29.4175 25.8801C29.7856 25.6936 30 25.3502 30 24.9784V20.9527C29.8751 20.9205 29.6923 20.8952 29.5145 20.8771V20.8771V20.8771ZM18.9243 20.3555C18.7132 20.5624 18.3533 21.0961 18.1849 21.5428C17.8502 22.4296 17.9951 23.3309 18.2322 23.385C18.5089 23.4484 18.9628 22.263 19.1801 21.7993C19.3164 21.509 19.8459 20.2204 19.7299 20.0482C19.6393 19.9135 19.2641 20.0222 18.9243 20.3555V20.3555V20.3555ZM22.7541 23.3447C22.7541 23.3447 22.6874 23.3999 22.7162 23.4153C22.7553 23.4358 22.8398 23.4093 22.9318 23.3673C23.1922 23.2239 23.7765 22.8662 23.7778 22.3369C23.7778 22.3215 23.7771 22.3066 23.7759 22.2906C23.6404 22.4462 23.5155 22.5847 23.4078 22.7023C23.2237 22.9026 22.7541 23.3447 22.7541 23.3447V23.3447V23.3447Z" fill="#8CC84B"/>
</svg>
