<svg width="39" height="39" viewBox="0 0 39 39" fill="none" xmlns="http://www.w3.org/2000/svg">
<rect width="39" height="39" rx="10" fill="#FBFBFB"/>
<g clip-path="url(#clip0_111_845)">
<path d="M9.71875 9H28.2812C29.2305 9 30 9.76951 30 10.7188V29.2812C30 30.2305 29.2305 31 28.2812 31H9.71875C8.76951 31 8 30.2305 8 29.2812V10.7188C8 9.76951 8.76951 9 9.71875 9Z" fill="#3178C6"/>
<path d="M20.9351 26.2283V28.6019C21.3212 28.7997 21.7778 28.9481 22.3048 29.047C22.8319 29.1459 23.3874 29.1953 23.9714 29.1953C24.5405 29.1953 25.0812 29.1409 25.5934 29.0321C26.1056 28.9233 26.5548 28.7441 26.9407 28.4944C27.3267 28.2447 27.6323 27.9183 27.8576 27.5152C28.0827 27.1123 28.1953 26.6141 28.1953 26.0207C28.1953 25.5905 28.1309 25.2134 28.0023 24.8895C27.8736 24.5656 27.688 24.2775 27.4455 24.0254C27.2031 23.7732 26.9123 23.547 26.5733 23.3467C26.2343 23.1464 25.852 22.9573 25.4263 22.7793C25.1145 22.6507 24.835 22.5259 24.5875 22.4047C24.3401 22.2835 24.1297 22.16 23.9565 22.0338C23.7833 21.9077 23.6496 21.7742 23.5556 21.6332C23.4616 21.4923 23.4146 21.3329 23.4146 21.1548C23.4146 20.9916 23.4566 20.8446 23.5408 20.7135C23.6249 20.5825 23.7438 20.47 23.8971 20.3761C24.0505 20.282 24.2386 20.2092 24.4613 20.1572C24.684 20.1053 24.9315 20.0793 25.2037 20.0793C25.4017 20.0793 25.6107 20.0942 25.8309 20.1238C26.0512 20.1535 26.2726 20.1992 26.4954 20.2611C26.718 20.3229 26.9345 20.4007 27.1449 20.4947C27.3552 20.5887 27.5495 20.6975 27.7276 20.821V18.6033C27.3664 18.4648 26.9716 18.3622 26.5436 18.2954C26.1155 18.2287 25.6243 18.1953 25.07 18.1953C24.5058 18.1953 23.9714 18.2559 23.4666 18.3771C22.9618 18.4982 22.5176 18.6873 22.1341 18.9444C21.7505 19.2016 21.4474 19.5292 21.2247 19.9273C21.002 20.3254 20.8906 20.8013 20.8906 21.3551C20.8906 22.0622 21.0947 22.6655 21.5031 23.165C21.9114 23.6644 22.5312 24.0872 23.3626 24.4333C23.6893 24.5669 23.9937 24.6979 24.2757 24.8265C24.5578 24.9551 24.8016 25.0885 25.0069 25.227C25.2123 25.3654 25.3744 25.5162 25.4932 25.6794C25.6119 25.8426 25.6713 26.0281 25.6713 26.2358C25.6713 26.389 25.6342 26.5312 25.56 26.6623C25.4858 26.7933 25.3731 26.9071 25.2222 27.0035C25.0713 27.0999 24.8832 27.1753 24.658 27.2297C24.4329 27.2841 24.1693 27.3113 23.8674 27.3113C23.3527 27.3113 22.843 27.2211 22.3382 27.0405C21.8334 26.86 21.3657 26.5893 20.9351 26.2283ZM16.9789 20.3216H20.0312V18.3672H11.5234V20.3216H14.5609V29.0234H16.9789V20.3216Z" fill="white"/>
</g>
<defs>
<clipPath id="clip0_111_845">
<rect width="22" height="22" fill="white" transform="translate(8 9)"/>
</clipPath>
</defs>
</svg>
