<svg width="39" height="39" viewBox="0 0 39 39" fill="none" xmlns="http://www.w3.org/2000/svg">
<rect width="39" height="39" rx="10" fill="#FBFBFB"/>
<path d="M19.7215 9L29.4431 14.4991V25.5009L19.7215 31L10 25.5009V14.4991L19.7215 9Z" fill="white"/>
<path d="M27.708 25.1194L20.0445 29.4592V26.0842L24.8209 23.4539L27.708 25.1194ZM28.2326 24.6462V15.5776L25.4299 17.1954V23.0283L28.2326 24.6462ZM11.706 25.1194L19.3695 29.4556V26.0805L14.5931 23.4539L11.706 25.1194ZM11.1814 24.6462V15.5776L13.9841 17.1954V23.0283L11.1814 24.6462ZM11.5079 14.9907L19.3695 10.5444V13.8094L14.3326 16.5791L14.2923 16.6011L11.5079 14.9907ZM27.9024 14.9907L20.0445 10.5444V13.8094L25.0777 16.5828L25.118 16.6048L27.9024 14.9907Z" fill="#8ED6FB"/>
<path d="M19.3693 25.3138L14.6589 22.7202V17.588L19.3693 20.3063V25.3138ZM20.0443 25.3138L24.7547 22.7239V17.588L20.0443 20.3063V25.3138ZM14.9744 16.9937L19.7068 14.3927L24.4355 16.9937L19.7068 19.723L14.9744 16.9937Z" fill="#1C78C0"/>
</svg>
